<svg id="Capa_1" enable-background="new 0 0 512 512" height="512" viewBox="0 0 512 512" width="512" xmlns="http://www.w3.org/2000/svg"><g><g><g><path d="m296.003 310.525-215.998-32.363v-278.162h168.315c26.334 0 47.683 21.348 47.683 47.683l19.974 166.569z" fill="#f7fcff"/><path d="m296.003 314.955 215.997-36.793v-278.162h-168.315c-26.334 0-47.683 21.348-47.683 47.683v267.272z" fill="#ecf3fb"/></g><g><path d="m138.478 135.686h97.105v30h-97.105z" fill="#ecf3fb"/></g><g><path d="m138.478 76.194h97.105v30h-97.105z" fill="#ecf3fb"/></g><g><path d="m345.85 76.194h116.303v30h-116.303z" fill="#e0e6f5"/></g><g><path d="m345.85 134.883h116.303v30h-116.303z" fill="#e0e6f5"/></g><g><path d="m345.85 194.887h116.303v30h-116.303z" fill="#e0e6f5"/></g><g><path d="m296.003 336.229h-215.998v-58.067h183.405c18.001 0 32.593 14.592 32.593 32.593l9.057 15.076z" fill="#fdd752"/><path d="m296.003 336.229h215.997v-58.067h-183.405c-18 0-32.593 14.592-32.593 32.593v25.474z" fill="#f8bd3f"/></g></g><g><g><path d="m116.743 388.887-27.153-16.22-70.352 54.173c-11.095 8.151-18.058 20.7-19.102 34.428s3.941 27.185 13.676 36.92l66.192-37.21 39.303-68.285z" fill="#585f64"/><path d="m13.813 498.187c8.884 8.885 20.867 13.813 33.329 13.813 1.193 0 2.391-.045 3.59-.137 13.728-1.044 26.276-8.006 34.428-19.102l54.173-70.352-20.026-29.718z" fill="#474f54"/></g><g><path d="m124.482 382.122c-16.801-16.802-26.054-39.14-26.054-62.901s9.253-46.099 26.054-62.901c17.344-17.344 40.119-26.012 62.901-26.012 22.776 0 45.561 8.673 62.9 26.012.905.905 1.772 1.833 2.63 2.767l17.702-3.985 3.526-17.243c-.868-.925-1.747-1.843-2.65-2.746-46.377-46.377-121.838-46.376-168.215 0-22.466 22.466-34.839 52.336-34.839 84.107 0 31.772 12.373 61.642 34.839 84.108.902.902 1.82 1.781 2.745 2.651l20.373 1.899.852-23.124c-.935-.858-1.861-1.729-2.764-2.632z" fill="#ca7a33"/><path d="m252.913 259.087c32.016 34.856 31.149 89.256-2.629 123.035-16.802 16.801-39.14 26.054-62.901 26.054-22.484 0-43.687-8.296-60.137-23.422l-21.226 21.226c22.126 20.783 50.866 32.188 81.362 32.188 31.771 0 61.641-12.373 84.108-34.839 45.474-45.474 46.353-118.906 2.65-165.469z" fill="#b1532b"/></g></g></g></svg>